<?xml version="1.0" ?><svg viewBox="0 0 64 64" xmlns="http://www.w3.org/2000/svg"><title/><g data-name="16" id="_16"><path d="M32.74,34.05A10.41,10.41,0,0,1,31.48,34c-6.27-.7-11-6.44-11-13.36,0-7.41,5.5-13.44,12.26-13.44S45,13.21,45,20.62a14.57,14.57,0,0,1-1.11,5.6A12.29,12.29,0,0,1,32.74,34.05Zm0-25.37C26.81,8.68,22,14,22,20.62c0,6.15,4.15,11.26,9.66,11.87a10,10,0,0,0,1.1.06,10.79,10.79,0,0,0,9.76-6.91,13,13,0,0,0,1-5C43.5,14,38.67,8.68,32.74,8.68Z"/><path d="M35.46,38h-5.2a.75.75,0,0,1-.6-.3.72.72,0,0,1-.12-.65l1.13-4a.75.75,0,1,1,1.45.41l-.87,3.08h3.13l-1.12-3a.75.75,0,0,1,.45-1,.74.74,0,0,1,1,.44l1.49,4a.77.77,0,0,1-.09.69A.75.75,0,0,1,35.46,38Z"/><path d="M32.7,56.82a.76.76,0,0,1-.75-.68,6,6,0,0,1,.69-3.52,4.8,4.8,0,0,0-.51-5.31A6,6,0,0,1,30.79,44a6.93,6.93,0,0,1,.66-3.69,5.54,5.54,0,0,0,.54-3,.75.75,0,1,1,1.49-.14,6.84,6.84,0,0,1-.65,3.69,5.54,5.54,0,0,0-.54,3,4.38,4.38,0,0,0,1.05,2.57,5.9,5.9,0,0,1,1.34,3.33A6,6,0,0,1,34,53.27,4.36,4.36,0,0,0,33.45,56a.76.76,0,0,1-.68.82Z"/><path d="M20.17,39.13a8.26,8.26,0,0,1-1-.06c-5-.55-8.69-5.09-8.69-10.55,0-5.85,4.35-10.6,9.69-10.6a9.11,9.11,0,0,1,1.29.09.75.75,0,1,1-.22,1.48,7.49,7.49,0,0,0-1.07-.07c-4.52,0-8.19,4.08-8.19,9.1,0,4.7,3.16,8.59,7.36,9.06a5.69,5.69,0,0,0,.83.05,8,8,0,0,0,6.72-3.89,9.45,9.45,0,0,0,.71-1.38l.11-.25a.75.75,0,0,1,1-.44.76.76,0,0,1,.44,1l-.12.3a12.08,12.08,0,0,1-.83,1.6A9.52,9.52,0,0,1,20.17,39.13Z"/><path d="M22.28,42.19h-4a.74.74,0,0,1-.6-.3.76.76,0,0,1-.13-.65l.88-3.14a.75.75,0,0,1,1.45.41l-.61,2.18h2l-.78-2.1a.77.77,0,0,1,.44-1,.75.75,0,0,1,1,.44L23,41.18a.77.77,0,0,1-.09.69A.75.75,0,0,1,22.28,42.19Z"/><path d="M20.14,56.82a.74.74,0,0,1-.74-.68,4.75,4.75,0,0,1,.54-2.82,3.18,3.18,0,0,0,.41-2,3.22,3.22,0,0,0-.78-1.92A4.8,4.8,0,0,1,18.5,46.7a5.55,5.55,0,0,1,.51-3,4.13,4.13,0,0,0,.41-2.24.75.75,0,0,1,1.5-.14,5.65,5.65,0,0,1-.52,3A4.11,4.11,0,0,0,20,46.56a3.28,3.28,0,0,0,.79,1.92A5.06,5.06,0,0,1,21.3,54a3.33,3.33,0,0,0-.41,2,.75.75,0,0,1-.68.82Z"/><path d="M45,39.45a8.49,8.49,0,0,1-.88-.05,8.82,8.82,0,0,1-7.4-7A.75.75,0,0,1,38.19,32a7.3,7.3,0,0,0,6.1,5.88c.23,0,.47,0,.71,0a7.05,7.05,0,0,0,6.37-4.52,8.59,8.59,0,0,0,.65-3.3c0-4.31-3.15-7.81-7-7.81h-.2l-.27,0a.77.77,0,0,1-.83-.66.74.74,0,0,1,.65-.83,3.18,3.18,0,0,1,.48,0H45c4.7,0,8.52,4.18,8.52,9.31A10,10,0,0,1,52.75,34,8.54,8.54,0,0,1,45,39.45Z"/><path d="M46.83,42.11h-3.5a.74.74,0,0,1-.6-.3.78.78,0,0,1-.13-.66l.77-2.72a.75.75,0,1,1,1.44.4l-.49,1.78h1.44l-.63-1.7a.75.75,0,0,1,1.4-.52l1,2.7a.77.77,0,0,1-.09.69A.74.74,0,0,1,46.83,42.11Z"/><path d="M45,54.82a.75.75,0,0,1-.74-.68,4.29,4.29,0,0,1,.48-2.5,2.76,2.76,0,0,0,.35-1.72,2.86,2.86,0,0,0-.66-1.62,4.11,4.11,0,0,1-.95-2.36,4.55,4.55,0,0,1,.5-2.6,3.06,3.06,0,0,0,.38-1.83.75.75,0,0,1,1.5-.14A4.61,4.61,0,0,1,45.32,44a3.07,3.07,0,0,0-.38,1.83,2.82,2.82,0,0,0,.66,1.62,4.18,4.18,0,0,1,.95,2.37,4.24,4.24,0,0,1-.48,2.5A2.76,2.76,0,0,0,45.72,54a.75.75,0,0,1-.67.82Z"/></g></svg>